<mxfile host="app.diagrams.net" agent="Mozilla/5.0 (Windows NT 10.0; Win64; x64) AppleWebKit/537.36 (KHTML, like Gecko) Chrome/138.0.0.0 Safari/537.36" version="28.0.7">
  <diagram name="Page-1" id="PTf-6wQNQ57H_9kxiHWm">
    <mxGraphModel dx="923" dy="491" grid="1" gridSize="10" guides="1" tooltips="1" connect="1" arrows="1" fold="1" page="1" pageScale="1" pageWidth="850" pageHeight="1100" math="0" shadow="0">
      <root>
        <mxCell id="0" />
        <mxCell id="1" parent="0" />
        <mxCell id="DChSLhynH-nj1Ni94fM_-1" value="&lt;b&gt;STUDENT INFORMATION SYSTEM&lt;/b&gt;" style="rounded=0;whiteSpace=wrap;html=1;strokeColor=#028090;fontColor=#E4FDE1;fillColor=#F45B69;labelBackgroundColor=none;" vertex="1" parent="1">
          <mxGeometry x="140" y="80" width="530" height="40" as="geometry" />
        </mxCell>
        <mxCell id="DChSLhynH-nj1Ni94fM_-31" value="" style="edgeStyle=orthogonalEdgeStyle;rounded=0;orthogonalLoop=1;jettySize=auto;html=1;strokeColor=#028090;fontColor=#E4FDE1;fillColor=#F45B69;" edge="1" parent="1" source="DChSLhynH-nj1Ni94fM_-2" target="DChSLhynH-nj1Ni94fM_-7">
          <mxGeometry relative="1" as="geometry">
            <Array as="points">
              <mxPoint x="115" y="240" />
              <mxPoint x="115" y="240" />
            </Array>
          </mxGeometry>
        </mxCell>
        <mxCell id="DChSLhynH-nj1Ni94fM_-2" value="&lt;b&gt;Admin&lt;/b&gt;" style="rounded=0;whiteSpace=wrap;html=1;strokeColor=#028090;fontColor=#E4FDE1;fillColor=#F45B69;" vertex="1" parent="1">
          <mxGeometry x="50" y="150" width="130" height="40" as="geometry" />
        </mxCell>
        <mxCell id="DChSLhynH-nj1Ni94fM_-3" value="login to&amp;nbsp;&lt;div&gt;system&lt;/div&gt;" style="ellipse;whiteSpace=wrap;html=1;aspect=fixed;strokeColor=#028090;fontColor=#E4FDE1;fillColor=#F45B69;" vertex="1" parent="1">
          <mxGeometry x="270" y="150" width="80" height="80" as="geometry" />
        </mxCell>
        <mxCell id="DChSLhynH-nj1Ni94fM_-4" value="check&lt;div&gt;Roles of Access&lt;/div&gt;" style="ellipse;whiteSpace=wrap;html=1;aspect=fixed;strokeColor=#028090;fontColor=#E4FDE1;fillColor=#F45B69;" vertex="1" parent="1">
          <mxGeometry x="425" y="150" width="75" height="75" as="geometry" />
        </mxCell>
        <mxCell id="DChSLhynH-nj1Ni94fM_-5" value="Check&lt;div&gt;Credentials&lt;/div&gt;" style="ellipse;whiteSpace=wrap;html=1;aspect=fixed;strokeColor=#028090;fontColor=#E4FDE1;fillColor=#F45B69;" vertex="1" parent="1">
          <mxGeometry x="270" y="270" width="80" height="80" as="geometry" />
        </mxCell>
        <mxCell id="DChSLhynH-nj1Ni94fM_-6" value="Manage&lt;div&gt;Modules&lt;/div&gt;" style="ellipse;whiteSpace=wrap;html=1;aspect=fixed;strokeColor=#028090;fontColor=#E4FDE1;fillColor=#F45B69;" vertex="1" parent="1">
          <mxGeometry x="425" y="270" width="80" height="80" as="geometry" />
        </mxCell>
        <mxCell id="DChSLhynH-nj1Ni94fM_-7" value="Forgot&lt;div&gt;Password&lt;/div&gt;" style="ellipse;whiteSpace=wrap;html=1;aspect=fixed;strokeColor=#028090;fontColor=#E4FDE1;fillColor=#F45B69;" vertex="1" parent="1">
          <mxGeometry x="70" y="232.5" width="85" height="85" as="geometry" />
        </mxCell>
        <mxCell id="DChSLhynH-nj1Ni94fM_-8" value="Send Email&lt;div&gt;to user&lt;/div&gt;" style="ellipse;whiteSpace=wrap;html=1;aspect=fixed;strokeColor=#028090;fontColor=#E4FDE1;fillColor=#F45B69;" vertex="1" parent="1">
          <mxGeometry x="75" y="400" width="80" height="80" as="geometry" />
        </mxCell>
        <mxCell id="DChSLhynH-nj1Ni94fM_-9" value="Manage System&lt;div&gt;Admins&lt;/div&gt;" style="rounded=0;whiteSpace=wrap;html=1;strokeColor=#028090;fontColor=#E4FDE1;fillColor=#F45B69;" vertex="1" parent="1">
          <mxGeometry x="30" y="590" width="150" height="40" as="geometry" />
        </mxCell>
        <mxCell id="DChSLhynH-nj1Ni94fM_-10" value="Manage Roles of User" style="rounded=0;whiteSpace=wrap;html=1;strokeColor=#028090;fontColor=#E4FDE1;fillColor=#F45B69;" vertex="1" parent="1">
          <mxGeometry x="220" y="590" width="160" height="40" as="geometry" />
        </mxCell>
        <mxCell id="DChSLhynH-nj1Ni94fM_-11" value="Manage User&lt;div&gt;Permission&lt;/div&gt;" style="rounded=0;whiteSpace=wrap;html=1;strokeColor=#028090;fontColor=#E4FDE1;fillColor=#F45B69;" vertex="1" parent="1">
          <mxGeometry x="420" y="590" width="170" height="40" as="geometry" />
        </mxCell>
        <mxCell id="DChSLhynH-nj1Ni94fM_-12" value="Manage Timetable&lt;div&gt;Details&lt;/div&gt;" style="rounded=0;whiteSpace=wrap;html=1;strokeColor=#028090;fontColor=#E4FDE1;fillColor=#F45B69;" vertex="1" parent="1">
          <mxGeometry x="610" y="150" width="190" height="40" as="geometry" />
        </mxCell>
        <mxCell id="DChSLhynH-nj1Ni94fM_-13" value="Manage Attendance&amp;nbsp;&lt;div&gt;Details&lt;/div&gt;" style="rounded=0;whiteSpace=wrap;html=1;strokeColor=#028090;fontColor=#E4FDE1;fillColor=#F45B69;" vertex="1" parent="1">
          <mxGeometry x="610" y="210" width="190" height="40" as="geometry" />
        </mxCell>
        <mxCell id="DChSLhynH-nj1Ni94fM_-14" style="edgeStyle=orthogonalEdgeStyle;rounded=0;orthogonalLoop=1;jettySize=auto;html=1;exitX=0.5;exitY=1;exitDx=0;exitDy=0;strokeColor=#028090;fontColor=#E4FDE1;fillColor=#F45B69;" edge="1" parent="1" source="DChSLhynH-nj1Ni94fM_-13" target="DChSLhynH-nj1Ni94fM_-13">
          <mxGeometry relative="1" as="geometry" />
        </mxCell>
        <mxCell id="DChSLhynH-nj1Ni94fM_-15" value="Manage class Details" style="rounded=0;whiteSpace=wrap;html=1;strokeColor=#028090;fontColor=#E4FDE1;fillColor=#F45B69;" vertex="1" parent="1">
          <mxGeometry x="610" y="277.5" width="190" height="40" as="geometry" />
        </mxCell>
        <mxCell id="DChSLhynH-nj1Ni94fM_-16" value="Manage Student&lt;div&gt;Details&lt;/div&gt;" style="rounded=0;whiteSpace=wrap;html=1;strokeColor=#028090;fontColor=#E4FDE1;fillColor=#F45B69;" vertex="1" parent="1">
          <mxGeometry x="610" y="340" width="190" height="40" as="geometry" />
        </mxCell>
        <mxCell id="DChSLhynH-nj1Ni94fM_-17" value="Manage Fees Details" style="rounded=0;whiteSpace=wrap;html=1;strokeColor=#028090;fontColor=#E4FDE1;fillColor=#F45B69;" vertex="1" parent="1">
          <mxGeometry x="610" y="400" width="190" height="40" as="geometry" />
        </mxCell>
        <mxCell id="DChSLhynH-nj1Ni94fM_-18" value="Manage Teacher&lt;div&gt;Profiles&lt;/div&gt;" style="rounded=0;whiteSpace=wrap;html=1;strokeColor=#028090;fontColor=#E4FDE1;fillColor=#F45B69;" vertex="1" parent="1">
          <mxGeometry x="610" y="460" width="190" height="40" as="geometry" />
        </mxCell>
        <mxCell id="DChSLhynH-nj1Ni94fM_-20" value="Manage Report" style="rounded=0;whiteSpace=wrap;html=1;strokeColor=#028090;fontColor=#E4FDE1;fillColor=#F45B69;" vertex="1" parent="1">
          <mxGeometry x="610" y="530" width="190" height="40" as="geometry" />
        </mxCell>
        <mxCell id="DChSLhynH-nj1Ni94fM_-27" value="" style="endArrow=classic;html=1;rounded=0;strokeColor=#028090;fontColor=#E4FDE1;fillColor=#F45B69;exitX=0.5;exitY=1;exitDx=0;exitDy=0;" edge="1" parent="1" source="DChSLhynH-nj1Ni94fM_-3" target="DChSLhynH-nj1Ni94fM_-5">
          <mxGeometry width="50" height="50" relative="1" as="geometry">
            <mxPoint x="330" y="210" as="sourcePoint" />
            <mxPoint x="380" y="160" as="targetPoint" />
          </mxGeometry>
        </mxCell>
        <mxCell id="DChSLhynH-nj1Ni94fM_-29" value="" style="endArrow=classic;html=1;rounded=0;strokeColor=#028090;fontColor=#E4FDE1;fillColor=#F45B69;" edge="1" parent="1">
          <mxGeometry width="50" height="50" relative="1" as="geometry">
            <mxPoint x="114.5" y="320" as="sourcePoint" />
            <mxPoint x="114.5" y="400" as="targetPoint" />
          </mxGeometry>
        </mxCell>
        <mxCell id="DChSLhynH-nj1Ni94fM_-40" value="" style="endArrow=classic;html=1;rounded=0;strokeColor=#028090;fontColor=#E4FDE1;fillColor=#F45B69;entryX=0.086;entryY=0.691;entryDx=0;entryDy=0;entryPerimeter=0;" edge="1" parent="1" source="DChSLhynH-nj1Ni94fM_-5" target="DChSLhynH-nj1Ni94fM_-4">
          <mxGeometry width="50" height="50" relative="1" as="geometry">
            <mxPoint x="400" y="380" as="sourcePoint" />
            <mxPoint x="410" y="240" as="targetPoint" />
          </mxGeometry>
        </mxCell>
        <mxCell id="DChSLhynH-nj1Ni94fM_-45" value="" style="endArrow=classic;html=1;rounded=0;strokeColor=#028090;fontColor=#E4FDE1;fillColor=#F45B69;entryX=0.5;entryY=0;entryDx=0;entryDy=0;exitX=0.5;exitY=1;exitDx=0;exitDy=0;" edge="1" parent="1" source="DChSLhynH-nj1Ni94fM_-4">
          <mxGeometry width="50" height="50" relative="1" as="geometry">
            <mxPoint x="461.25" y="225" as="sourcePoint" />
            <mxPoint x="463.75" y="270" as="targetPoint" />
            <Array as="points" />
          </mxGeometry>
        </mxCell>
        <mxCell id="DChSLhynH-nj1Ni94fM_-47" value="" style="endArrow=classic;html=1;rounded=0;strokeColor=#028090;fontColor=#E4FDE1;fillColor=#F45B69;exitX=0.5;exitY=1;exitDx=0;exitDy=0;entryX=0.25;entryY=0;entryDx=0;entryDy=0;" edge="1" parent="1" source="DChSLhynH-nj1Ni94fM_-6" target="DChSLhynH-nj1Ni94fM_-11">
          <mxGeometry width="50" height="50" relative="1" as="geometry">
            <mxPoint x="410" y="410" as="sourcePoint" />
            <mxPoint x="465" y="540" as="targetPoint" />
          </mxGeometry>
        </mxCell>
        <mxCell id="DChSLhynH-nj1Ni94fM_-48" value="" style="endArrow=classic;html=1;rounded=0;strokeColor=#028090;fontColor=#E4FDE1;fillColor=#F45B69;entryX=0.558;entryY=-0.069;entryDx=0;entryDy=0;entryPerimeter=0;" edge="1" parent="1" source="DChSLhynH-nj1Ni94fM_-6" target="DChSLhynH-nj1Ni94fM_-10">
          <mxGeometry width="50" height="50" relative="1" as="geometry">
            <mxPoint x="400" y="440" as="sourcePoint" />
            <mxPoint x="450" y="390" as="targetPoint" />
          </mxGeometry>
        </mxCell>
        <mxCell id="DChSLhynH-nj1Ni94fM_-49" value="" style="endArrow=classic;html=1;rounded=0;strokeColor=#028090;fontColor=#E4FDE1;fillColor=#F45B69;exitX=0;exitY=1;exitDx=0;exitDy=0;entryX=0.891;entryY=-0.109;entryDx=0;entryDy=0;entryPerimeter=0;" edge="1" parent="1" source="DChSLhynH-nj1Ni94fM_-6" target="DChSLhynH-nj1Ni94fM_-9">
          <mxGeometry width="50" height="50" relative="1" as="geometry">
            <mxPoint x="420" y="350" as="sourcePoint" />
            <mxPoint x="180" y="580" as="targetPoint" />
          </mxGeometry>
        </mxCell>
        <mxCell id="DChSLhynH-nj1Ni94fM_-51" value="" style="endArrow=classic;html=1;rounded=0;strokeColor=#028090;fontColor=#E4FDE1;fillColor=#F45B69;" edge="1" parent="1">
          <mxGeometry width="50" height="50" relative="1" as="geometry">
            <mxPoint x="190" y="170" as="sourcePoint" />
            <mxPoint x="270" y="170" as="targetPoint" />
          </mxGeometry>
        </mxCell>
        <mxCell id="DChSLhynH-nj1Ni94fM_-53" value="" style="endArrow=classic;html=1;rounded=0;strokeColor=#028090;fontColor=#E4FDE1;fillColor=#F45B69;entryX=0;entryY=0;entryDx=0;entryDy=0;exitX=1;exitY=0.5;exitDx=0;exitDy=0;" edge="1" parent="1" source="DChSLhynH-nj1Ni94fM_-6" target="DChSLhynH-nj1Ni94fM_-13">
          <mxGeometry width="50" height="50" relative="1" as="geometry">
            <mxPoint x="510" y="300" as="sourcePoint" />
            <mxPoint x="580" y="230" as="targetPoint" />
          </mxGeometry>
        </mxCell>
        <mxCell id="DChSLhynH-nj1Ni94fM_-54" value="" style="endArrow=classic;html=1;rounded=0;strokeColor=#028090;fontColor=#E4FDE1;fillColor=#F45B69;exitX=0.782;exitY=0.976;exitDx=0;exitDy=0;exitPerimeter=0;" edge="1" parent="1" source="DChSLhynH-nj1Ni94fM_-6">
          <mxGeometry width="50" height="50" relative="1" as="geometry">
            <mxPoint x="480" y="410" as="sourcePoint" />
            <mxPoint x="600" y="490" as="targetPoint" />
          </mxGeometry>
        </mxCell>
        <mxCell id="DChSLhynH-nj1Ni94fM_-55" value="" style="endArrow=classic;html=1;rounded=0;strokeColor=#028090;fontColor=#E4FDE1;fillColor=#F45B69;exitX=0.612;exitY=0.946;exitDx=0;exitDy=0;exitPerimeter=0;" edge="1" parent="1" source="DChSLhynH-nj1Ni94fM_-6">
          <mxGeometry width="50" height="50" relative="1" as="geometry">
            <mxPoint x="480" y="360" as="sourcePoint" />
            <mxPoint x="600" y="550" as="targetPoint" />
          </mxGeometry>
        </mxCell>
        <mxCell id="DChSLhynH-nj1Ni94fM_-56" value="" style="endArrow=classic;html=1;rounded=0;strokeColor=#028090;fontColor=#E4FDE1;fillColor=#F45B69;" edge="1" parent="1" source="DChSLhynH-nj1Ni94fM_-6">
          <mxGeometry width="50" height="50" relative="1" as="geometry">
            <mxPoint x="400" y="400" as="sourcePoint" />
            <mxPoint x="600" y="420" as="targetPoint" />
          </mxGeometry>
        </mxCell>
        <mxCell id="DChSLhynH-nj1Ni94fM_-57" value="" style="endArrow=classic;html=1;rounded=0;strokeColor=#028090;fontColor=#E4FDE1;fillColor=#F45B69;entryX=0;entryY=0.5;entryDx=0;entryDy=0;" edge="1" parent="1" target="DChSLhynH-nj1Ni94fM_-16">
          <mxGeometry width="50" height="50" relative="1" as="geometry">
            <mxPoint x="500" y="310" as="sourcePoint" />
            <mxPoint x="450" y="350" as="targetPoint" />
          </mxGeometry>
        </mxCell>
        <mxCell id="DChSLhynH-nj1Ni94fM_-58" value="" style="endArrow=classic;html=1;rounded=0;strokeColor=#028090;fontColor=#E4FDE1;fillColor=#F45B69;entryX=0;entryY=0.5;entryDx=0;entryDy=0;" edge="1" parent="1" target="DChSLhynH-nj1Ni94fM_-15">
          <mxGeometry width="50" height="50" relative="1" as="geometry">
            <mxPoint x="510" y="310" as="sourcePoint" />
            <mxPoint x="600" y="300" as="targetPoint" />
          </mxGeometry>
        </mxCell>
        <mxCell id="DChSLhynH-nj1Ni94fM_-59" value="" style="endArrow=classic;html=1;rounded=0;strokeColor=#028090;fontColor=#E4FDE1;fillColor=#F45B69;entryX=0;entryY=0.25;entryDx=0;entryDy=0;" edge="1" parent="1" target="DChSLhynH-nj1Ni94fM_-12">
          <mxGeometry width="50" height="50" relative="1" as="geometry">
            <mxPoint x="500" y="280" as="sourcePoint" />
            <mxPoint x="450" y="350" as="targetPoint" />
          </mxGeometry>
        </mxCell>
      </root>
    </mxGraphModel>
  </diagram>
</mxfile>
